{"title":"Nightwish - Showtime, Storytime (Dvdrip)","uid":9279695,"size":3774693747,"categoryP":"video","categoryS":"music_videos","magnet":"?xt=urn:btih:02e4b5a2c8b3a6b85d0218823d0f585f89b89f99&amp;dn=Nightwish+-+Showtime%2C+Storytime+%28Dvdrip%29&amp;tr=udp%3A%2F%2Ftracker.openbittorrent.com%3A80&amp;tr=udp%3A%2F%2Fopen.demonii.com%3A1337&amp;tr=udp%3A%2F%2Ftracker.coppersurfer.tk%3A6969&amp;tr=udp%3A%2F%2Fexodus.desync.com%3A6969","seeders":2,"leechers":0,"uploader":"Pitufo7777","files":1,"time":1385916461,"description":"Nightwish Showtime,Storytime (2013)\nLive at the Wacken Open Air in Wacken, Germany August 3, 2013\n\nSource DVD9\n\nVideo\nID : 1\nFormat : AVC\nFormat/Info : Advanced Video Codec\nFormat profile : &lt;a class=&quot;__cf_email__&quot; href=&quot;/cdn-cgi/l/email-protection&quot; data-cfemail=&quot;541c3d333c1418607a65&quot;&gt;[email&amp;#160;protected]&lt;/a&gt;&lt;script cf-hash='f9e31' type=&quot;text/javascript&quot;&gt;\n/* &lt;![CDATA[ */!function(){try{var t=&quot;currentScript&quot;in document?document.currentScript:function(){for(var t=document.getElementsByTagName(&quot;script&quot;),e=t.length;e--;)if(t[e].getAttribute(&quot;cf-hash&quot;))return t[e]}();if(t&amp;&amp;t.previousSibling){var e,r,n,i,c=t.previousSibling,a=c.getAttribute(&quot;data-cfemail&quot;);if(a){for(e=&quot;&quot;,r=parseInt(a.substr(0,2),16),n=2;a.length-n;n+=2)i=parseInt(a.substr(n,2),16)^r,e+=String.fromCharCode(i);e=document.createTextNode(e),c.parentNode.replaceChild(e,c)}}}catch(u){}}();/* ]]&gt; */&lt;/script&gt;\nFormat settings, CABAC : Yes\nFormat settings, ReFrames : 2 frames\nFormat settings, GOP : M=3, N=24\nCodec ID : V_MPEG4/ISO/AVC\nDuration : 1h 34mn\nBit rate mode : Variable\nBit rate : 4 790 Kbps\nMaximum bit rate : 7 350 Kbps\nWidth : 720 pixels\nHeight : 406 pixels\nDisplay aspect ratio : 16:9\nFrame rate mode : Constant\nFrame rate : 25.000 fps\nColor space : YUV\nChroma subsampling : 4:2:0\nBit depth : 8 bits\nScan type : Progressive\nBits/(Pixel*Frame) : 0.655\nStream size : 3.15 GiB (90%)\nDefault : Yes\nForced : No\n\nAudio\nID : 2\nFormat : AC-3\nFormat/Info : Audio Coding 3\nMode extension : CM (complete main)\nFormat settings, Endianness : Big\nCodec ID : A_AC3\nDuration : 1h 34mn\nBit rate mode : Constant\nBit rate : 448 Kbps\nChannel count : 6 channels\nChannel positions : Front: L C R, Side: L R, LFE\nSampling rate : 48.0 KHz\nBit depth : 16 bits\nCompression mode : Lossy\nStream size : 302 MiB (8%)\nDefault : Yes\nForced : No\n\nPlease SEED and Enjoy!!!\n\nPitufo7777","torrent":{"xt":"urn:btih:02e4b5a2c8b3a6b85d0218823d0f585f89b89f99","amp;dn":"Nightwish+-+Showtime%2C+Storytime+%28Dvdrip%29","amp;tr":["udp%3A%2F%2Ftracker.openbittorrent.com%3A80","udp%3A%2F%2Fopen.demonii.com%3A1337","udp%3A%2F%2Ftracker.coppersurfer.tk%3A6969","udp%3A%2F%2Fexodus.desync.com%3A6969"],"infoHash":"02e4b5a2c8b3a6b85d0218823d0f585f89b89f99","infoHashBuffer":{"type":"Buffer","data":[2,228,181,162,200,179,166,184,93,2,24,130,61,15,88,95,137,184,159,153]},"announce":[],"urlList":[]}}